<?xml version="1.0" encoding="utf-8"?>
<!-- Generator: Adobe Illustrator 23.0.1, SVG Export Plug-In . SVG Version: 6.00 Build 0)  -->
<svg version="1.1" id="Layer_1" xmlns="http://www.w3.org/2000/svg" xmlns:xlink="http://www.w3.org/1999/xlink" x="0px" y="0px"
	 viewBox="0 0 595.28 841.89" style="enable-background:new 0 0 595.28 841.89;" xml:space="preserve">
<style type="text/css">
	.st0{fill:#252322;}
	.st1{fill:#FEFEFE;}
	.st2{fill:#8F5142;}
	.st3{fill:#AA826B;}
	.st4{fill:#C3B4A4;}
	.st5{fill:#262423;}
	.st6{fill:#C4B5A5;}
	.st7{fill:#C1B2A2;}
	.st8{fill:#BDAF9F;}
	.st9{fill:#BCAD9D;}
	.st10{fill:#C0B1A1;}
	.st11{fill:#2A2726;}
	.st12{fill:#BEAF9F;}
	.st13{fill:#BCAD9E;}
	.st14{fill:#A49687;}
	.st15{fill:#BFB1A1;}
	.st16{fill:#B8A99A;}
	.st17{fill:#B3A595;}
	.st18{fill:#9A8C7E;}
	.st19{fill:#B7A899;}
	.st20{fill:#B9AB9B;}
	.st21{fill:#AA9B8C;}
	.st22{fill:#B4A697;}
	.st23{fill:#B8AA9A;}
	.st24{fill:#B0A192;}
	.st25{fill:#B7A999;}
	.st26{fill:#B0A293;}
	.st27{fill:#9E9183;}
	.st28{fill:#BAAC9C;}
	.st29{fill:#AB9D8E;}
	.st30{fill:#AEA091;}
	.st31{fill:#A19385;}
	.st32{fill:#53453B;}
	.st33{fill:#B0A193;}
	.st34{fill:#A7998A;}
	.st35{fill:#B3A49A;}
	.st36{fill:#A59788;}
	.st37{fill:#B0A292;}
	.st38{fill:#94877A;}
	.st39{fill:#9B8E80;}
	.st40{fill:#887A6E;}
	.st41{fill:#AC9E8F;}
	.st42{fill:#BAAB9C;}
	.st43{fill:#AE9F90;}
	.st44{fill:#A99B8C;}
	.st45{fill:#9E8E83;}
	.st46{fill:#49413B;}
	.st47{fill:#AC9C91;}
	.st48{fill:#564A42;}
	.st49{fill:#887B6E;}
	.st50{fill:#BDAE9E;}
	.st51{fill:#9C9082;}
	.st52{fill:#B2A394;}
	.st53{fill:#948679;}
	.st54{fill:#8F8376;}
	.st55{fill:#8A7D73;}
	.st56{fill:#82776B;}
	.st57{fill:#AC9D91;}
	.st58{fill:#988A7D;}
	.st59{fill:#705949;}
	.st60{fill:#635950;}
	.st61{fill:#756A60;}
	.st62{fill:#4F463F;}
	.st63{fill:#82766B;}
	.st64{fill:#5C544C;}
	.st65{fill:#4C453F;}
	.st66{fill:#908478;}
	.st67{fill:#655B52;}
	.st68{fill:#938678;}
	.st69{fill:#96897B;}
	.st70{fill:#7B7065;}
	.st71{fill:#262323;}
	.st72{fill:#272423;}
	.st73{fill:#372D2A;}
	.st74{fill:#8E5142;}
	.st75{fill:#A57E68;}
	.st76{fill:#372F2C;}
	.st77{fill:#3F3430;}
	.st78{fill:#2B2826;}
	.st79{fill:#2B2827;}
	.st80{fill:#5E5650;}
	.st81{fill:#635850;}
	.st82{fill:#4D4743;}
	.st83{fill:#B5A696;}
	.st84{fill:#2D2A28;}
	.st85{fill:#272524;}
	.st86{fill:#332F2D;}
	.st87{fill:#383431;}
	.st88{fill:#34302E;}
	.st89{fill:#564E48;}
	.st90{fill:#7A7269;}
	.st91{fill:#302D2B;}
	.st92{fill:#363230;}
	.st93{fill:#88644E;}
	.st94{fill:#8D5243;}
	.st95{fill:#895041;}
	.st96{fill:#836353;}
	.st97{fill:#8D5142;}
	.st98{fill:#A37C66;}
	.st99{fill:#8B5041;}
	.st100{fill:#804D3F;}
	.st101{fill:#905242;}
	.st102{fill:#382D2B;}
	.st103{fill:#392E2B;}
	.st104{fill:#362C2A;}
</style>
<g>
	<g>
		<path class="st0" d="M-68.16-0.53c242.55,0,485.11,0.04,727.66-0.18c7.23-0.01,8.86,1.63,8.86,8.86
			c-0.21,279.18-0.18,558.36-0.18,837.54c-3.33,1.79-6.94,0.91-10.41,0.91c-238.35,0.05-476.7,0.05-715.05,0.03
			c-13.22,0-11.82,1.41-11.82-11.82c-0.02-274.97-0.02-549.94,0.03-824.91C-69.07,6.42-69.95,2.81-68.16-0.53z"/>
		<path class="st1" d="M-68.16-0.53c0,278.52,0.04,557.04-0.21,835.56c-0.01,8.73,2.11,10.87,10.85,10.86
			c241.9-0.26,483.8-0.21,725.7-0.21c-1.73,3.98-5.21,1.81-7.71,1.81c-124.65,0.13-249.3,0.12-373.95,0.12
			c-116.3,0-232.6-0.07-348.89,0.19c-6.6,0.01-7.9-1.3-7.89-7.9c0.21-277.57,0.18-555.15,0.3-832.72
			C-69.97,4.68-72.15,1.2-68.16-0.53z"/>
		<path class="st2" d="M444.52,356.17c4.03,9.03,2.07,18.03,0.23,27.19c-13.37,66.66-69.11,115.51-132.38,124.18
			c-72.02,9.86-135.64-21.22-167.36-88.76c-8.85-18.85-13.66-38.42-14.21-59.14c2.68-5.15,7.6-5.18,12.44-5.5
			c35.81-2.37,71.67-2.01,107.53-1.95c5.78,0.01,11.54,0.13,17.04,2.15c6.57-0.92,6.31,5.07,8.59,8.49c4.22,0.51,3.85-6.27,8.36-5.2
			c5.33,7.34,0.42,13.11-3.82,17.91c-4.31,4.88-9.23,9.96-16.94,9.74c-3.61-0.1-5.6,2.74-7.54,5.34
			c-16.07,21.6-31.66,43.54-46.59,65.95c-1.43,2.14-2.94,4.29-3.26,6.9c-0.48,3.94-0.49,8.63,3.15,10.42
			c4.22,2.07,5.74-2.88,7.68-5.49c19.49-26.29,37.57-53.55,55.88-80.66c7.75-11.48,17.13-12.06,25.06-0.25
			c14.85,22.11,30.94,43.35,45.56,65.6c3.18,4.84,6.51,9.56,10.42,13.81c1.91,2.07,3.9,4.75,7.26,2.29
			c2.88-2.11,4.12-4.81,2.62-8.38c-1.63-3.89-3.61-7.67-6.65-10.52c-10.47-9.81-17.01-22.44-24.97-34.07
			c-11.22-16.37-21.88-33.11-32.69-49.74c-4.23-6.5-3.61-9.12,3.83-13.2c3.15-0.77,6.29-1.16,9.51-1.16
			c39.66,0,79.33-0.05,118.99,0.05C436.74,352.2,441.34,352.06,444.52,356.17z"/>
		<path class="st3" d="M444.52,356.17c-48.12-0.04-96.25-0.09-144.37-0.13c-1.59-2.71-0.18-5.03,1.18-7.15
			c12.8-19.96,24.91-40.39,40.58-58.38c4.47-5.13,8.91-6.62,15.08-2.98c6.32,3.73,12.83,7.38,20.72,5.98
			c3.28-0.58,7.97,1.53,9.31-2.83c1.36-4.44,2.14-9.54-1.52-13.69c-2.33-2.64-4.77-5.14-7.77-7.13c-5.38-3.57-10.23-7.42-11.5-14.59
			c-0.79-4.46-4.94-7.54-9.23-7.04c-10.02,1.17-17.5-3.62-24.39-9.38c-5.07-4.24-8.45-3.48-11.76,1.47
			c-1.43,2.14-2.87,4.27-4.69,6.09c-5.17,5.15-4.44,8.59,1.95,12.69c18.93,12.13,18.76,12.4,5.45,36.07
			c-6.29,8.34-12.96,16.41-18.15,25.54c-4.38,5.11-8.25,10.59-12.04,16.15c-4.02,5.9-7.52,6.03-12.24,0.59
			c-5.88-6.78-10.47-14.55-15.37-22c-2.19-3.32-5.03-5.58-7.47-8.39c-4.56-8.1-10.22-15.46-15.53-23.07
			c-6.36-9.13-5.91-13.3,2.49-20.46c3.65-3.12,7.84-5.53,11.87-8.12c4.36-2.8,5.13-6.2,2-10.4c-0.58-0.77-1.26-1.45-1.83-2.22
			c-7.85-10.64-7.69-10.37-19.32-3.1c-17.9,11.19-35.07,23.37-52.12,35.78c-4.7,3.42-5.38,6.39-2.52,11.14
			c8,13.24,8.84,13.5,22.04,5.23c18.28-11.45,18.71-11.73,30.69,6.4c10.26,15.52,21.62,30.23,32.09,45.58
			c2.41,3.54,6.19,6.94,3.25,12.03c-4.44,4.24-9.14,0.35-13.68,0.31c-40.5-0.32-80.99,0.14-121.45,1.92
			c-1.84,0.08-3.63,1.03-5.45,1.57c-3.25-33.62,7.8-63.19,26.77-90.02c24.55-34.71,57.99-57.13,99.64-65.47
			c52.68-10.56,99.79,2.2,139.87,38.41c30.64,27.68,46.95,62.67,50.71,103.63C448.13,349.81,449.43,354.1,444.52,356.17z"/>
		<path class="st4" d="M176.72,570.17c7.48-5.57,15.43-5.68,24.26-3.35c5.89,1.56,11.29,7.25,18.21,3.27
			c1.67-1.65,3.39-3.16,6.02-2.31c24.16,7.25,48.81,10.4,74.05,9.8c24.24-0.57,47.84-3.78,70.09-14.08
			c1.69-0.78,3.67-0.96,5.51-1.42c1.67-0.97,2.42,0,2.94,1.41c-0.16,1.42-1.09,2.36-2.08,3.26c2.37-0.83,4.97,1.43,7.26-0.51
			c17.02-2.35,31.95,5.83,47.64,9.87c6.49,1.68,10.17,7.4,6.9,14.37c-2.54,5.4-1.1,7.9,3.76,10.48c4.74,2.51,7.71,6.77,7.49,12.54
			c-0.28,7.27-6.55,11.89-14.35,9.1c-6.96-2.49-9.52-0.47-11.58,5.96c-2.73,8.52-6.29,16.79-9.77,25.04
			c-0.75,1.77-0.63,5.21-3.8,4.64c-3.13-0.56-3.17-3.52-3.23-6.15c-0.13-5.62,1.33-13.82-3.83-15.46c-4.81-1.53-9.1,5.81-13.11,9.82
			c-2.62,2.62-4.85,5.64-7.84,9.17c2.61-13.38,6.49-25.42,11.51-37.14c2.05-4.78,6.14-9.43,1.47-15.01
			c-4.47-5.34-10.01-2.86-15.24-2.28c-3.17,0.35-6.29,1.17-9.43,1.78c-2.11,1.08-3.83,1.12-4.52-1.65c1.84-4.05,5.88-4.71,9.47-5.85
			c14.98-4.76,30.11-9,45.63-11.67c4.54-0.78,9.14-1.61,10.38,6.12c1.07-4.29,0.27-6.65-3.1-7.16c-3.52-0.54-6.97-1.31-10.22-2.64
			c-19.89-8.16-38.91-8-58.1,3.17c-9.63,5.6-21.71,10.13-32.29,6.16c-9.8-3.68-20.05-1.16-29.73-6.14
			c-7.91-4.07-15.53,2.52-22.26,7.92c-5.35,4.3-6.97,12.64-15.1,13.8c-1.46-0.05-2.78-0.49-3.91-1.42
			c-2.57-6.89,4.78-9.5,6.65-14.87c-14.88,3.65-28.44,1.63-41.47-6.14c-12.05-7.19-25.34-9.95-39.44-7.92
			C179.15,574.04,176.4,573.73,176.72,570.17z"/>
		<path class="st5" d="M259.88,602.95c3.79-0.47,4.85-3.91,6.78-6.33c13.28-16.58,19.84-18.52,40.18-11.68
			c0.6,0.2,1.62,0.69,1.75,0.52c7.59-9.92,12.44,1.35,18.61,2.25c9.23,1.35,17.53-3.1,26.14-5.4c2.76-0.74,5.49-1.96,7.92-3.47
			c17.63-10.98,35.83-9.65,54.36-2.83c3.61,1.33,7.16,3.13,10.89,3.71c6.91,1.08,8.59,4.58,6.46,10.81
			c-2.7,7.91-7.07,3.47-11.19,2.19c0.52-4.64,6.33-1.86,7.31-7.62c-22.11,3.42-42.47,10.65-63.23,16.15
			c-9.89,3.89-20.32,4.95-30.75,6c-8.23-0.7-11.61-8.16-16.07-11.52c5.64,6.63,12.38,14.4,24.36,10.86c4.17,0.07,8.33-3.52,12.48,0
			c-10.67,12.36-23.09,10.81-34.48,0.72c-8.19-7.26-16.17-14.71-24.05-22.31c-2.29-2.2-5.74-2.22-8.1-0.48
			c-7.16,5.27-15.2,9.8-20.37,17.17c-5.4,7.69-12.61,10.93-21.4,13.02c-8.82,2.1-16.31,2.3-22.6-5.36c-1.23-1.5-4.43-0.73-5.77-2.95
			c2.07-2.57,5.13-3.08,7.73-2.11C238.12,608.49,248.96,605.58,259.88,602.95z"/>
		<path class="st6" d="M465.87,425.7c6.82-1.39,12.03-6.96,19.13-7.51c4.04-0.31,8.29-1.34,12.51,1.87
			c-4.58,7.34-12.96,11.47-16.52,20.27c7.36,1.72,14.43-3.33,21.08,1.52c-8.49,7.33-17.78,14.09-24.97,23.46
			c-5.21,6.78-4.2,10.24,2.22,14.03c0.68,2.25,2.7,4.89-1.61,5.73c-1.31-4.74-4.38-6.75-9.28-6.11c-17.05,2.25-34.35,2.97-50.93,8.1
			c-5.92,1.83-12.6,2.61-14.94,10.08c-0.83,2.66-3.71,2.19-5.83,2.03c-15.15-1.14-28.85,4.22-42.61,9.34
			c-2.04,0.7-2.42-0.23-1.96-1.99c8.16-4.81,17.78-6.9,25.02-13.43c3.16-0.64,6.67,0.41,9.04-3.27c2.66-4.13,7.49-5.18,11.87-6.66
			c3.93-0.64,6.65-9.14,12.17-1.05c2.35,3.45,4.35-1.7,4.55-3.38c1.38-11.44,7.63-20.11,15.15-28.12c4.11-4.38,1.22-11.53,7-16.25
			c1.91,7.28,4.9,6.41,12.04,5.7c11.14-1.1,11.47-9.86,17.08-14.49L465.87,425.7z"/>
		<path class="st6" d="M452.46,296.18c-3.62-5.69-7.24-11.37-10.86-17.06c-4.07-6.4-7.04-12.68-2.89-20.56
			c2.54-4.83,0.24-9.8-1.92-14.68c-2.94-6.64-4.98-13.68-8.21-22.86c-4.18,7.82-3.29,14.37-3.75,20.64
			c-0.13,1.83,0.03,4.45-1.05,5.29c-2.28,1.77-4.08-0.85-5.66-2.15c-13.64-11.22-24.85-24.58-35.55-38.62
			c-5.03-6.61-8.68-17.28-20.92-14.69c-1.18,0.25-3.78-1.07-3.96-1.99c-1.42-7.51-6.74-4.58-10.81-5.01
			c-1.39,4.04,4.08,5.42,2.23,9.72c-7.67-3.68-11.71-10.37-15.53-17.17c-0.69-1.22-1-3.45-0.34-4.47c1.36-2.09,3.72-0.65,5.14,0.11
			c16.67,8.93,36.97,11.73,49.04,31.41c2.44-9.56,2.65-17.14,5.3-24.17c2.55-6.76,7.07-7.53,9.82-1.75
			c5.4,11.35,19.63,16.07,20.14,29.85c4.01-0.31,3.17-3.94,5.54-4.6c0.36,0.42,0.95,0.78,1.04,1.25
			c3.63,18.6,13.04,35.44,16.52,54.09c0.08,0.43,1.65,0.58,2.53,0.87c2.01-0.59,3.04,0.66,3.98,2.11
			c2.2,10.53,2.55,21.28,3.82,31.93C455.4,295.2,454.56,296.61,452.46,296.18z"/>
		<path class="st6" d="M153.5,483.34c-15.95-0.93-31.69-4.49-47.78-3.56c-0.85,0.21-1.89,0.41-2.21-0.61
			c-1.02-3.25,3.05-1.97,3.59-3.9c1.06-9.49-6.11-14.28-11.63-19.83c-4.7-4.72-9.93-8.91-15.48-13.83
			c6.63-2.92,13.27,0.38,20.32-0.96c-5.38-11.06-13.85-18.35-27.15-23.22c5.86-2.49,9.43-1.24,12.86-0.86
			c4.13,0.45,8.23,1.17,12.34,1.84c3.77,0.61,6.77,3.83,10.91,3.22c0.45,0.02,0.89,0.04,1.34,0.05c4.18,1.65,6.25,5.82,9.53,7.94
			c-1.14-1.36-3.18-2.53-3.76-4.85c0.53-1.37,1.22-2.43,2.93-1.57c8.91,3.54,12.13,12.72,18.54,18.75c0.59,0.55,0.71,1.6,1.04,2.41
			c-11.03,1.82-3.04,8.98-3.2,13.31c-0.2,5.57,1.44,11.38,3.2,16.78c2.25,6.91,10.59,2.97,14.57,7.25c0.61,0.34,0.82,0.7,0.63,1.07
			C153.89,483.15,153.7,483.34,153.5,483.34z"/>
		<path class="st7" d="M238.4,194.21c-3.2-0.31-8.69,3.43-7.13-4.93c0.43-2.33-3.31-4.41-7.46-3.44
			c-11.9,2.78-20.47,10.17-25.02,20.59c-2.62,6-7.02,8.34-12.19,13.7c0-11.23,0.17-20.56-0.1-29.87c-0.09-2.95,0.64-7.71-3.33-8
			c-4.67-0.34-4.34,4.83-5.06,7.98c-2.32,10.17-0.61,20.3,1.02,30.39c0.25,1.56,0.86,3.14-1.9,4.37
			c-3.66-5.69-3.17-12.43-4.45-18.65c-0.64-3.11-0.53-7.39-4.2-7.61c-4.03-0.24-3.82,4.48-4.8,7.3c-2.77,7.97-2.22,16.36-2.63,24.62
			c-0.14,2.98,1.11,6.29-2.1,9.76c-3.39-6.44-0.72-14.14-5.48-20.28c-5.96,14.7-12.91,28.26-11.38,44.12
			c0.16,1.66-1.28,3.48-1.97,5.23l0.16,0.16c-4.12-13.59-2.26-26.58,4.24-38.96c1.58-3.01,0.69-4.92-0.45-7.79
			c-2.67-6.69,2.18-19.25,6.31-17.86c11.68,3.94,9.43-6.9,13.87-10.48c6.37-5.15,12.95-9.19,13.03-18.63
			c0.01-1.01,3.6-2.49,5.69-2.86c2.84-0.49,3.77,2.26,4.32,4.28c2.24,8.23,4.2,16.53,6.71,26.59c12.46-22.4,37.28-22.19,55.57-36.41
			c-0.03,7.44-5.85,10.03-5.58,15.04C242.19,186.45,242.36,191.35,238.4,194.21z"/>
		<path class="st7" d="M129.08,560.04c9.76-0.37,18.89,5.67,29.13,3.33c-0.52-4.9-4.22-6.25-7.24-7.34
			c-16.77-6.05-33.85-11.29-51.56-13.52c-6.34-0.8-9.23-2.93-9.08-9.19c0.27-11.47,1.25-22.85,4.48-34.32
			c-15.31-5.16-31.43-3.34-47.27-4.29c-0.78-0.36-1.03-0.71-0.77-1.06c0.26-0.35,0.52-0.53,0.78-0.53
			c12.45-2.36,24.88-3.13,37.44-0.46c3.9,0.83,8.11,1.6,12.14-0.06c2.2-0.4,3.27,0.34,2.75,2.7c-2.09,11.29-5.1,22.37-5.92,33.96
			c-0.54,7.69,2.54,9.77,9.22,9.39c24.59-1.4,48.31,3.66,71.88,9.78c2.46,0.64,4.79,1.76,7.18,2.65c0.06,3.64-2.09,2.45-3.99,1.83
			c-7.13-2-11.11,0.97-13.66,7.68c-2.35,6.2-6.28,9.1-14.08,7.55c-8.69-1.73-17.36-3.44-25.87-5.89
			C124.59,558.43,127.03,559.63,129.08,560.04z"/>
		<path class="st8" d="M459.62,255.95c1.01,5.28,1.66,10.69,4.81,15.55c6.18-2.53,4.6-10.89,12.01-13.47
			c-0.5,27.93,17.83,54.07,4.46,82.62c-3.62,7.73-8.83,13.74-16.87,20.62c1.2-8.41-2.25-14.23-2.82-21.14
			c4.07,1.23,3.4,5.19,6.76,7.74c1.83-7.88,3.13-14.5-0.21-21.62c-2.57-5.47-6.74-10.17-7.91-16.3c-0.89-1.87,0.3-2.47,1.78-2.9
			c3.03,0.13,5.36,1.89,7.84,3.31c2.65,2.32,3.19,5.75,4.59,8.73c1.17,3.87,2.68,7.68,2.3,12.28c4.03-18.91-2.62-36.51-4.17-55.46
			c-1.47,5.29-2.49,9.67-3.57,14.04c-0.82,3.32-2.41,6.13-6.41,5.99c-3.73-0.12-5.68-2.56-6.77-5.88c-0.3-0.91-1.13-2.04-0.8-2.72
			c4.85-10.1-1.24-21.06,2.52-31.22C457.92,255.47,458.75,255.43,459.62,255.95z"/>
		<path class="st9" d="M259.88,602.95c-9.24,7.33-19.44,8.22-30.46,4.87c-3.27-0.99-6.85-0.97-10.29-1.41
			c-9.02-0.56-16.75-8.99-27.04-3.36c-5.02,2.74-6.87,4.51-4.09,9.89c1.78,3.45,4.5,6.92,3.64,11.45
			c-7.59-2.9-4.48-13.78-12.76-15.67c-1.9,1.13-3.53,1.03-4.71-1.05c-0.6-3.25,2.89-4.83,3.23-7.7
			c-13.56-3.59-31.58,4.9-35.85,16.86c-0.84,1.22-1.8,2.14-3.43,1.39c-4.23-7.01-4.62-12.93,4.3-16.66
			c3.37-1.41,6.09-3.65,5.13-8.03c-1.06-2.04-0.98-3.76,1.35-4.85c1.95-0.53,4.85,1.92,5.13,0.99c3.72-12.15,12.2-6.52,18.71-4.62
			c20.32,5.94,40.47,12.32,61.44,15.81c6.98,1.16,14.04-0.61,20.82,1.67C256.61,602.67,258.24,602.81,259.88,602.95z"/>
		<path class="st10" d="M99.1,303.91c0.62-16.58,4.21-33,2.03-50.56c7.99,2.09,10.88,8.28,14.59,13.7c5.25-9.4,5.72-13.68,3.3-30.72
			c9.67,6.92,13.29,16.42,15.82,26.6c0.78,3.14-0.21,7.69,5.54,6.72c0.01,0.01-0.16-0.16-0.16-0.16c-2.73,4.67-5.47,9.33-8.21,14
			c-0.56,0.02-1.12,0.05-1.68,0.07c0-7.38,0.02-14.76-0.01-22.14c-0.01-2.58,0.05-5.85-3.03-6.26c-3.41-0.45-3.61,3.03-4.06,5.44
			c-0.94,5.04-2.39,10.16-2.12,15.17c0.13,2.48-5.15,9.62,4.27,8.16c1.14-0.18-0.27,2.54-0.42,3.93c-0.51,4.72-4.51,6.26-7.93,9.02
			c-0.26-11.08-5.09-20.54-8.04-30.76c-4.86,12.22-2.29,25.93-7.82,37.89C100.46,304.6,99.76,304.57,99.1,303.91z"/>
		<path class="st11" d="M460.06,423.56c-1.4-0.04-2.8-0.07-4.19-0.11c-3.77-7.14,2.19-12.47,3.65-18.59
			c1.37-5.76,6.3-10.01,8.85-17.1c-1.92,4.25-2.75,8.23-6.77,7.47c-4.59-0.88-4-4.99-3.56-8.57c5.15-11.98,11.67-23.06,21.59-31.74
			c3.12-2.73,6.6-7.11,10.83-1.07c0.7,14.82-5.91,27.59-11.7,40.5c-3.4,7.59-9.76,13.21-14.93,19.61c-1.79,3-4.49,5.65-3.81,9.63
			L460.06,423.56z"/>
		<path class="st12" d="M91.86,404.25c-6.58-3.81-10.97-9.21-13.71-16.44c-4.67-12.33-6.02-25.17-8.38-38.93
			c6.89,2.58,12.4,4.76,16.59,9.17c5.43-2.52-1.44-9.8,4.6-11.22c3.08-0.72,5.9,1.58,8.05,4.67c-5.34-0.45-7.17,1.15-6.26,6.81
			c2.02,12.48,6.45,24.03,11.65,35.39c1.44,3.14,2.68,6.36,4.61,10.99c-16.69-12.9-13.62-36.77-31.39-47.19
			c1.49,16.32,5.15,31.71,16.51,44.25C94.74,403.85,93.75,404.46,91.86,404.25z"/>
		<path class="st4" d="M404.22,551c24.22-7.89,48.79-13.62,74.54-12.05c1.91-0.53,4.13-1.81,4.24,1.83
			c-17.85,4.63-36.37,6.75-53.44,14.3c-2.62,1.16-5.24,2.32-7.86,3.48c-2.7,0.91,0.87,6.29-4.02,5.63
			c-1.96-3.19-3.92-6.39-5.88-9.58C409.96,551.98,404.94,556.01,404.22,551z"/>
		<path class="st13" d="M463.84,413.96c9.18-14.08,18.1-28.29,21.94-44.98c1.14-4.94,2.27-9.88,3.4-14.82
			c1.85-4.1-5.56-1.6-3.94-5.53c14.53-9.02,3.5,8.32,9.31,8.29c5.38-0.19,10.52-9.08,14.62-5.25c4.96,4.64,0.25,12.73-1.31,19.1
			c-1.04,4.24-3.7,8.08-5.63,12.11c-1.7,0.52-2.62,0.24-1.82-1.79c1.27-5.25,2.74-10.47,3.73-15.77c0.43-2.29,1.57-5.42-1.3-6.86
			c-2.41-1.21-3.96,1.27-5.62,2.68c-4.59,3.91-6.73,9.07-8.16,14.81C485.16,391.55,477.25,404.61,463.84,413.96z"/>
		<path class="st14" d="M47.55,493.12c0.02,0.53,0.02,1.06-0.01,1.59c-4.31,1.18-8.59,2.48-12.93,3.5
			c-4.38,1.02-8.41,1.9-11.81-3.08c-2.68-3.91-7.45-3.68-11.14-0.83c-3.47,2.68-5.43,6.44-3.45,11.01c1.91,4.42,7.23,7.31,9.95,5.39
			c10.79-7.6,19.72-0.02,28.91,2.64c6.09,1.76,15.28,3.12,16.42,9.73c1.1,6.35-7.81,9.03-12.38,13.26
			c-0.46,0.42-1.11,0.63-1.67,0.94c-1.82,0.4-2.66-0.16-2.08-2.12c3.7-3.89,7.41-7.79,11.31-11.89c-5.77-2.79-10.64-5.78-15.93-7.55
			c-6.89-2.31-13.36-7.46-21.6-2.06c-5.25,3.44-11.02,1.71-14.87-3.89c-3.16-4.61-4.04-9.26-0.63-14.22
			c3.93-5.72,10.23-8.94,15.73-5.9C30.06,494.47,38.8,492.49,47.55,493.12z"/>
		<path class="st15" d="M99.1,303.91c0.69,0.04,1.38,0.07,2.08,0.11c-0.26,11.4-1.02,22.85,4.25,35.79
			c3.68-13.83,4.39-26.03,6.75-38.05c0.95,3.26,1.91,6.53,2.86,9.79c2.73,1.42,3.34,3.56,2.14,6.32c-8.2,11.69-3.62,25.05-3.8,38.15
			C97.65,349.16,90.88,323.8,99.1,303.91z"/>
		<path class="st16" d="M460.35,387.41c-0.05,2.19-0.8,4.48,1.47,6.94c4.74-2.4,4.21-9.03,9.66-12.18
			c-3.26,15.11-11.41,27.49-15.61,41.28c-3.69,2.39-6.76,2.41-9.99-1.29c-2.8-3.21-4-5.75-1.76-9.94
			c2.64-4.92,2.77-10.97,6.39-15.57c2.46,4.48,3.66,9.14,2.59,13.1c1.48-3.99-0.16-8.53-2.73-12.92c0.65-4.55,1.3-9.1,1.96-13.65
			c2.1-1.46-0.68-6.12,3.1-5.83c3.79,0.29,3.6,4.7,5.12,7.34C460.82,385.61,460.76,386.52,460.35,387.41z"/>
		<path class="st17" d="M483,540.78c-1.41-0.61-2.83-1.22-4.24-1.83c5.24-1.16,6.71-4.34,6.57-9.66
			c-0.4-15.15-4.08-29.65-7.63-44.22c1.66-1.59,1.38-3.74,1.61-5.73c5.29,14.43,5.3,14.57,23.16,12.63
			c12.58-1.37,24.96-0.99,37.27,2.53c-5.36,2.64-11.22,2.69-16.48,1.58c-10.72-2.26-20.98,1.11-31.47,1.19
			c-5.02,0.04-6.44,2.62-5.15,7.66c2.15,8.39,2.31,17.1,3.16,25.7C490.42,536.76,488.94,539.84,483,540.78z"/>
		<path class="st18" d="M554.53,510.13c-10.98,1.12-20.68,6.16-30.71,10.12c-4.17,1.64-3.9,4.36-0.48,7.15
			c5.45,4.44,10.9,8.92,16.03,13.72c3.04,2.84,5.64,1.2,8.78,0.63c6.55-1.19,11.2,1.97,13.26,8.21c1.94,5.87,1.89,12.07-4.34,15.11
			c-5.28,2.58-11.43,3.63-17.16-4.66c4.06,1.51,6.15,2.62,8.36,3.05c6.32,1.22,9.21-3.19,9.8-8.03c0.66-5.38-3.57-10.64-8.4-9.2
			c-7.61,2.27-11.59-1.97-16.13-5.61c-6.95-5.57-13.48-11.67-21.45-18.66c14.93-5.53,27.91-14.63,44.37-13.65
			C556.06,509.18,555.43,509.8,554.53,510.13z"/>
		<path class="st19" d="M334.07,529.14c-9.09,9.76,0.51,20.33-1.74,32.53c-4.73-6.76-4.77-12.89-5.74-18.69
			c-1.16-6.96-4.33-11.55-12.14-8.63c-2.88,1.08-7.47,0.02-8.15,5.16c-0.75,5.68,5.93,2.58,7.07,6.6c-1.97,2.72-7.28,3.07-6.17,8.87
			c1.33,6.98,8.29,1.34,10.45,5.55c-10.66,5.41-14.02,3.8-14.75-6.92c-0.02-0.32,0.09-0.64,0.07-0.96
			c-1.39-21.19-1.4-21.27,19.91-23.27C326.5,529.04,330.22,527.24,334.07,529.14z"/>
		<path class="st20" d="M367.04,537.69c-4.11,3.7-0.92,8.51-2.09,12.71c-2.75-1.83-3.24-6.14-6.96-7.14
			c-2.81,1.7-1.67,3.98-1.37,6.04c0.29,1.97,2.63,4.09-1.26,6.22c-5.15-9.09-7.43-18.9-9.5-29.68c5.91,0.78,7.55,4.75,9.65,8.12
			c1.05,1.69,2.09,3.52,4.41,2.66c1.9-0.7,1.46-2.69,1.28-4.16c-0.53-4.56-3.51-11.65,1.48-12.64c4.59-0.91,3.93,7.56,6.49,11.41
			c0.33,0.5,0.33,1.23,0.48,1.85C370.66,535.69,370.66,537.72,367.04,537.69z"/>
		<path class="st21" d="M129.08,560.04c-1.48,0.73-2.96,1.47-4.44,2.2c-20.76-6.73-42.08-9.27-63.85-9.05
			c-4.37,0.04-8.2,2.59-13.35,0.62c-3.97-1.52-3.94,5.37-5.96,8.33c-1.74,0.28-2.64-0.28-2.21-2.19c1.42-6.97,5.62-9.33,12.77-10.06
			C78.61,547.17,104.12,551.2,129.08,560.04z"/>
		<path class="st22" d="M187.7,529.57c1.96-6.9,2.96-14.23,8.86-20.33c4.07,6.61-0.72,13.17,2.19,19.65
			c4.29-2.94,6.2-7.41,9.02-11.07c1.02-1.33,2.42-2.47,4.01-1.34c0.8,0.57,1.59,2.48,1.22,3.17c-4.29,8.19-5.47,17.85-12.69,24.79
			c1.58-4.56,3.16-9.12,4.94-14.26c-6.55-0.39-5.3,7.11-9.8,8.11c-4.11-1.34,1.9-8.99-5.12-8.6
			C189.41,530.39,188.53,530.34,187.7,529.57z"/>
		<path class="st23" d="M468.25,510.56c0,1.59,0.23,3.23-0.04,4.77c-0.92,5.21-0.79,12.35-8.4,11.35
			c-6.57-0.86-9.22-6.88-9.57-13.31c-0.16-2.84,0.15-5.72,0.49-8.56c0.58-4.8,1.04-10.31,7.35-10.54
			c6.67-0.24,9.23,4.67,10.09,10.56c0.27,1.88,0.21,3.81,0.31,5.72C468.4,510.56,468.33,510.56,468.25,510.56z"/>
		<path class="st24" d="M174.74,606.85c1.37,0.62,2.75,1.25,4.12,1.87c-2.22,1.18-4.4,2.47-6.68,3.53
			c-11.85,5.51-12.36,6.1-6.3,17.9c2.81,5.47,3.77,11.88,8.23,16.5c5.3,0.38,3.33,3.79,2.76,6.62c-0.24,1.92-0.38,4.15-2.85,4.29
			c-2.42,0.14-2.9-2-3.33-3.88c-2-8.7-5.91-16.67-9.16-24.91c-2.65-6.74-6.37-9.5-13.44-8.6c-3.4,0.43-7.05,0.68-10-1.93
			c0.64-0.64,1.28-1.28,1.92-1.93c9.15-1.72,17.6-5.28,25.87-9.46C168.66,605.43,171.81,603.91,174.74,606.85z"/>
		<path class="st25" d="M397.89,541.22c-9.89-7.09-14.57-5.2-17.32,3.69c-1.66-9.28-3.33-18.56-4.96-27.85
			c-0.23-1.34,0.17-2.54,1.52-3.18c1.41-0.68,2.52,0.02,3.31,1.05C386.11,522.37,392.11,529.61,397.89,541.22z"/>
		<path class="st22" d="M554.53,510.13c0.64-0.61,1.28-1.22,1.93-1.83c5.83,1.79,11.84,4.42,15.64-3.31
			c2.09-4.27-0.37-7.58-2.88-10.35c-2.77-3.07-6.44-2.02-9.69-0.37c-4.42,2.25-8.62,5.97-14.33,1.18c4.93-2,9.45-3.87,14-5.66
			c5.48-2.15,10.86-2.24,14.75,2.78c3.16,4.07,5,8.74,2.63,14.14c-2.65,6.04-7.58,7.26-13.37,6.63
			C560.1,513.01,556.75,513,554.53,510.13z"/>
		<path class="st26" d="M290.98,535.71c-12.69-0.27-12.75-0.23-7.64,9.82c1.25,2.46-0.82,2.24-1.82,3.17
			c-5.63,5.27-4.97,8.63,2.09,11.11c1.49,0.52,3.39,0.59,3.26,2.72c-0.14,2.32-2.15,1.86-3.64,1.98
			c-7.18,0.58-12.08-0.88-10.08-9.95c0.81-3.69,0.27-7.67,0.52-11.5C274.48,530.71,277.17,529.27,290.98,535.71z"/>
		<path class="st27" d="M517.94,552.47c-17.26,3.15-35.11,1.21-52.2,5.89c-1.35-0.86-3.49-0.06-4.3-2.05
			c22.47-6.27,45.21-9.51,68.54-5.99C526.61,554.62,521.95,551.74,517.94,552.47z"/>
		<path class="st28" d="M248.27,547.25c-1.19,4.1-1.56,8.53-4.72,12.79c-4.46-6.59-2.27-14.25-5.67-20.76
			c-4.66,4.88-2.77,11.52-7.08,15.88c0.56-10.4,2.28-20.52,6.34-31.72c4.7,5.89,4.25,11.43,5.12,16.59
			c0.24,1.42-0.07,3.71,2.11,3.31c0.86-0.16,1.31-2.56,1.94-3.94C251.15,540.97,248.47,544.42,248.27,547.25z"/>
		<path class="st29" d="M149.09,497.44c0.75,7.93-0.42,15.64-3.28,23.13c-1.3,3.4-1.52,8.35-7.09,7.01
			c-5.13-1.23-8.76-4.82-8.15-10.27c0.86-7.66,2.75-15.21,4.2-22.8c0.81,0.07,1.63,0.13,2.44,0.2c-0.61,6.85-1.26,13.69-1.82,20.54
			c-0.23,2.75-1.49,6.46,2.39,7.24c4.41,0.89,4.87-3.04,5.43-6.22c1.14-6.39,2.23-12.78,3.34-19.18
			C147.39,497.21,148.24,497.32,149.09,497.44z"/>
		<path class="st30" d="M449.3,526.35c-10.98,5.59-13.01,4.83-15.24-5.82c-0.85-4.05-1.65-8.12-2.22-12.22
			c-1.57-11.37-0.63-12.21,11.52-10.82c0.08,3.28-2.58,3.07-4.61,3.61c-2.3,0.61-3.6,3.61-2.66,4.14c7.25,4,3.4,9.33,2.51,14.56
			c-0.54,3.18,0.83,5.57,5.01,4.69C445.61,524.07,448.14,523.48,449.3,526.35z"/>
		<path class="st26" d="M232.04,524.94c-3.46,3.59-8.76-3.74-11.87,1.99c-2.45,4.5,2.55,5.69,4.14,8.8c-2.4,3.1-8.71-0.71-9.41,5.6
			c-0.54,4.89,2.29,6.73,6.56,8.52c-3.41,3.34-5.97,3.81-8.66,0.8c-1.84-2.06-4.15-3.74-2.55-7.39c2.16-4.94,3.53-10.22,5.35-15.32
			C219.55,516.84,222.66,516.29,232.04,524.94z"/>
		<path class="st11" d="M459.83,384.3c-5.94,0.89-2.89-4.16-4.44-6.72c-1.09,1.99-2.07,3.79-3.06,5.59
			c0.64-7.89,1.27-15.79,1.94-23.68c0.15-1.83-0.01-4.31,2.71-4.01c2.19,0.24,2.7,2.43,2.91,4.4c0.46,4.25-1.1,9.23,4.25,11.71
			C465.32,376.71,463.06,380.67,459.83,384.3z"/>
		<path class="st31" d="M178.25,552.91c1.33-0.61,2.66-1.22,3.99-1.83c14.55,4.98,29.26,9.57,42.97,16.7
			c-1.84,1.21-2.87,4.51-6.01,2.31C205.54,564.37,191.89,558.64,178.25,552.91z"/>
		<path class="st17" d="M246.21,188.61c10.09-7.35,21.57-9.03,35.71-9.3c-10.93,11.68-25.67,5.98-35.82,13.08
			c-0.86,0.29-1.85,0.38-2.08-0.63C243.63,190.06,244.68,189.11,246.21,188.61z"/>
		<path class="st32" d="M254.38,195.65c24.27-6.89,48.32-7.24,72.32-0.29C302.53,191.48,278.37,191.83,254.38,195.65z"/>
		<path class="st33" d="M253.07,530.59c8.09-2.3,12.81-1.01,19.11,1.37c-13.87,6.53-4.8,20.72-12.58,29.66
			c-4.8-5.43,0.44-10.79-0.15-15.92C258.86,540.61,263.22,534.47,253.07,530.59z"/>
		<path class="st34" d="M461.44,556.31c1.43,0.68,2.87,1.37,4.3,2.05c-11.68,3.31-23.31,6.81-35.07,9.82
			c-4.82,1.23-10.25,2.48-12.98-3.99c1.34-1.88,2.68-3.75,4.02-5.63c-0.41,6.12,3.87,5.48,7.67,5.17
			C440.42,562.82,451.24,560.87,461.44,556.31z"/>
		<path class="st35" d="M200.3,508.12c9.39-3.3,17.44-8.02,25.89-1.44c2.22,1.73,5.98,3.12,4.23,6.33
			c-1.48,2.71-5.41,1.96-7.66,0.34C216.44,508.82,208.59,510.91,200.3,508.12z"/>
		<path class="st29" d="M414,532.32c-10.55,7.94-12.02,7.53-15.48-3.7c-2.07-6.73-3.83-13.55-4.77-20.6
			c6.19,2.89,5.82,8.73,6.92,13.68C402.23,528.69,404.04,534.84,414,532.32z"/>
		<path class="st36" d="M149.55,589.34c-0.67,1.4-1.35,2.79-2.02,4.19c-4.8-12.09,1.37-16.62,12.55-19.99
			c5.39-1.63,11.08-2.27,16.64-3.37c1.53,2,3.91,1.4,5.92,1.93c-1.07,5.92-6.48,4.97-10.29,6.3
			C164.31,581.18,155.08,581.37,149.55,589.34z"/>
		<path class="st37" d="M412.44,502.82c6.42,3.61,5.66,10.36,6.54,15.7c1.21,7.38,3.94,10.78,12.07,9.41
			c-8.42,8.05-13.33,7.19-15.25-2.6C414.36,517.98,413.63,510.47,412.44,502.82z"/>
		<path class="st38" d="M110.33,382.17c7.77,12.37,13.58,25.44,16.45,39.75C120.85,408.82,111.93,397.03,110.33,382.17z"/>
		<path class="st39" d="M459.83,384.3c1.44-4.24,2.88-8.48,4.31-12.72c4.96-9.55,12.16-17.05,21.1-22.95
			c0.62,2.34,6.84,0.69,3.94,5.53c-5.36-3.7-7.84,1.36-10.61,3.95c-8.68,8.07-13,19-18.21,29.31
			C460.18,386.37,460,385.34,459.83,384.3z"/>
		<path class="st30" d="M115.69,494.58c-4.41,19.27-4.71,27.38,9.59,24.53c-1.82,5.15-5.78,5.75-10.01,5.12
			c-4.02-0.6-4.38-4.12-4.79-7.33C109.42,508.72,109.09,500.69,115.69,494.58z"/>
		<path class="st40" d="M47.36,535.16c0.69,0.71,1.39,1.41,2.08,2.12c-4.36,6.04-9.37,9.4-17.7,8.37c-9.5-1.17-12.62,5.73-8.2,16.21
			c-5.59-2.31-7.17-3.55-6.38-6.72c1.55-6.22,5.36-12.43,11.8-12.07C37.08,543.52,41.67,538.73,47.36,535.16z"/>
		<path class="st41" d="M302.28,181.89c11.32-1.38,21.84,0.73,31.32,7.24C323.44,185.51,311.51,189.49,302.28,181.89z"/>
		<path class="st42" d="M155.06,511.79c0.44-4.8,2.17-9.09,5.04-13.89c4.98,5.94,2.56,12.14,3.19,17.79c0.74,1.9,3.2,0.78,4.12,2.35
			c-1.59,2.93-3.19,5.86-4.79,8.81c-5.81-2.98,2.99-11.26-5.36-12.79C155.35,514.45,154.36,513.94,155.06,511.79z"/>
		<path class="st43" d="M186.32,633.62c6.37,3.9,5.32-2.24,6.85-5.77c4.49,7.75,7.5,15.3,8.72,25.25
			c-6.55-6.56-12.03-12.06-17.51-17.56C183.95,633.82,184.26,632.84,186.32,633.62z"/>
		<path class="st44" d="M91.86,404.25c0.76-0.83,1.52-1.65,2.28-2.48c8.39,7.14,16.78,14.29,25.16,21.43
			c-0.76,0.61-1.51,1.23-2.27,1.84c-3.98,1.94-5.1-2.75-7.95-3.43c0,0,0.19,0.02,0.19,0.02c-3.15-4.84-7.4-8.53-12.44-11.21
			C94.17,409.01,91.98,407.55,91.86,404.25z"/>
		<path class="st44" d="M404.22,551c2.53,1.2,5.06,2.41,7.6,3.61c-11.83,0.07-21.85,6.17-32.62,9.81c-0.86,0.5-1.58,0.32-2.17-0.45
			c-0.72-0.63-1.45-1.27-2.17-1.9C384.29,557.47,394.15,553.95,404.22,551z"/>
		<path class="st45" d="M273.15,519.49c-12.91-0.01-25.59-1.4-37.55-7.29c13.24,1.84,26.49,3.68,39.73,5.51
			C275.18,519.01,273.99,519.03,273.15,519.49z"/>
		<path class="st46" d="M398.09,483.17c-3.34,4.31-9.01,5.75-12.2,10.56c-2.34,3.53-5.98,2.37-8.72-0.63
			c5.06-2.8,9.47-6.44,13.34-10.7C393.5,479.11,396.15,476.99,398.09,483.17z"/>
		<path class="st47" d="M338.43,515.85c-11.9,3.8-24.22,3.6-36.5,3.76c-0.72-0.42-0.96-0.83-0.72-1.25
			c0.24-0.42,0.48-0.63,0.72-0.63c10.75-1.34,21.5-2.68,32.25-4.02C336.11,513.42,338.54,512.13,338.43,515.85z"/>
		<path class="st48" d="M190.32,224.42c7.47-10.63,20.21-11.87,31.02-16.54C211,213.39,200.66,218.9,190.32,224.42z"/>
		<path class="st49" d="M332.74,604.89c11.22,0.4,22.12-2.1,33.12-3.63c1.23,0.57,2.46,1.15,3.7,1.72
			c-4.01,3.25-9.6,0.56-13.66,3.62c-4.55,0.59-9.11,1.18-13.66,1.77C339.53,605.95,333.84,611.68,332.74,604.89z"/>
		<path class="st50" d="M517.94,552.47c3.61-2.99,8.14-0.84,12.04-2.15c4.47,0.3,9.04,0.42,10.57,7.44
			C533.17,552.83,524.92,556.12,517.94,552.47z"/>
		<path class="st51" d="M459.62,255.95l-0.66,0.02l-0.66-0.07c-3.3,1.08-3.1,6.51-7.59,6.12c-0.79-0.8-1.58-1.6-2.37-2.4
			c1.88-5.41,4.25-10.5,8.93-14.35C460.88,248.38,459.48,252.34,459.62,255.95z"/>
		<path class="st29" d="M168.42,514.02c1.92-4.5,3.82-12.58,8.43-10.34c4.19,2.02-0.8,9.34-2.42,14.19
			C171.21,518.5,170.85,514.64,168.42,514.02z"/>
		<path class="st52" d="M153.5,483.34c-0.08-0.54-0.1-1.09-0.05-1.63c7.72,1.07,15.8,1.15,22,8.35
			C167.46,488.45,159.79,488.22,153.5,483.34z"/>
		<path class="st27" d="M168.42,514.02c2.95-0.19,4.27,2.16,6.02,3.85c-0.78,5.19-1.4,10.43-4.4,15.96
			c-3.17-4.99-0.1-8.54,0.36-12.28c0.2-1.61,2.43-6.19-2.99-3.5c-1.72-0.17-3.5-0.24-4.12-2.35
			C165.48,516.61,166.86,515.03,168.42,514.02z"/>
		<path class="st14" d="M99.88,495.3c-0.92-0.9-1.83-1.8-2.75-2.7c3.41-5.72-0.64-15.74,9.97-17.32c0.18,1.7-3.8,2.12-1.38,4.5
			C102.13,484.33,102.45,490.36,99.88,495.3z"/>
		<path class="st53" d="M186.32,633.62c-0.65,0.64-1.3,1.28-1.95,1.92c-4.55-0.45-4.73,2.86-5.25,5.99
			c-0.65,3.93,0.09,8.13-2.25,11.73c-0.41-2.42-0.11-5.13-2.76-6.62c0.39-4.11,1.05-8.19,3.61-11.56
			C180.02,632.05,182.77,630.08,186.32,633.62z"/>
		<path class="st54" d="M248.27,547.25c-0.92-2.55,0.46-5.67-1.95-7.85c0.84-3.85,1.67-7.7,2.51-11.56c0.9,0.16,1.81,0.32,2.71,0.48
			C252.72,534.84,249.76,540.98,248.27,547.25z"/>
		<path class="st55" d="M338.43,515.85c-1.41-0.71-2.83-1.43-4.24-2.14c5.99-2.39,11.97-4.79,17.96-7.18
			c0.65,0.66,1.31,1.33,1.96,1.99C348.68,510.51,344.61,515.44,338.43,515.85z"/>
		<path class="st56" d="M39.26,559.95c0.74,0.73,1.48,1.46,2.21,2.19c-3.51,6.49-8.86,5.54-14.27,4.47
			C30.68,562.92,36.13,563.9,39.26,559.95z"/>
		<path class="st57" d="M301.94,517.73c0,0.63,0,1.25,0,1.88c-9.59-0.04-19.19-0.08-28.78-0.12c0.73-0.59,1.45-1.18,2.18-1.77
			C284.2,517.72,293.07,517.73,301.94,517.73z"/>
		<path class="st58" d="M155.06,511.79c0.73,0.76,1.47,1.52,2.2,2.28c-1.54,4.53-0.45,9.94-4.8,14.73
			C150.93,522.01,153.24,516.94,155.06,511.79z"/>
		<path class="st59" d="M122.02,344.9c0.97,8.04,1.41,16.07-0.34,24.08C120.61,360.94,119.9,352.91,122.02,344.9z"/>
		<path class="st60" d="M246.21,188.61c-0.22,1.25-2.27,2.45-0.11,3.78c-2.18,2.22-4.92,2.09-7.7,1.83
			c-1.43-5.51,3.84-7.74,5.7-11.63C244.65,184.65,243.91,187.16,246.21,188.61z"/>
		<path class="st61" d="M471.63,415.87c3.55-3.05,7.09-6.1,12.14-10.43c-0.86,8-6.9,9.12-10.21,12.48
			C471.57,418.5,471.1,417.65,471.63,415.87z"/>
		<path class="st62" d="M403.1,471.68c3.55-3.45,7.09-6.9,10.64-10.34C412.23,466.67,408.92,470.38,403.1,471.68z"/>
		<path class="st63" d="M187.7,529.57c0.87,0.04,1.75,0.09,2.62,0.13c-0.05,0.31-0.03,0.66-0.17,0.93c-1.58,3-0.99,7.05-4.31,9.14
			c-0.38,0.24-2.13-0.63-2.14-1.02C183.59,535.11,185.5,532.26,187.7,529.57z"/>
		<path class="st64" d="M377.02,563.98c0.72,0.15,1.45,0.3,2.17,0.45c1.26,0.61,2.52,1.21,3.77,1.82
			c-4.13,2.52-8.76,3.04-13.91,3.66C371.06,566.48,374.37,565.66,377.02,563.98z"/>
		<path class="st65" d="M471.63,415.87c0.64,0.68,1.28,1.36,1.92,2.05c-2.47,2.69-6.17,4.15-7.68,7.78c0,0,0.21-0.1,0.21-0.1
			c-2.16-0.21-4.52,0.15-6.02-2.03c0,0-0.04,0.02-0.04,0.02C463.89,421.01,467.76,418.44,471.63,415.87z"/>
		<path class="st38" d="M117.18,317.87c-0.71-2.11-1.43-4.21-2.14-6.32c2.86-1.44,2.89-5.73,7.13-6.57
			C121.16,309.73,120.18,314.14,117.18,317.87z"/>
		<path class="st66" d="M461.91,307.89c-0.69,0.69-1.37,1.38-2.06,2.07c-3.37-4.11-5.37-8.95-7.39-13.78
			c0.67-0.68,1.34-1.36,2.02-2.04C460.74,296.68,462.28,301.77,461.91,307.89z"/>
		<path class="st67" d="M362.66,195.86c3.62,2.07,6.93,4.37,8.52,9.32C364.94,204.51,364.49,199.46,362.66,195.86z"/>
		<path class="st68" d="M367.04,537.69c1.85-0.97,2.18-2.82,2.62-4.6c2.3,4.46,3.28,9.23,4.13,15.59
			C368.91,545.31,369.56,540.54,367.04,537.69z"/>
		<path class="st69" d="M120.99,492.88c4.93,1.78,6.17,4.48,5.06,9.03C122.54,499.92,121.23,497.26,120.99,492.88z"/>
		<path class="st70" d="M500.41,381.08c0.61,0.6,1.21,1.19,1.82,1.79c-1.11,4-3.11,7.48-6.76,11.62
			C495.71,388.58,498.06,384.83,500.41,381.08z"/>
		<path class="st71" d="M320.9,293.88c2.88-5.29,4.62-11.28,9.61-15.28c3.26-2.61,1.93-4.95-0.72-6.99
			c-5.08-3.91-10.19-7.77-15.31-11.62c-1.28-0.96-3.42-1.49-3.88-2.69c-4.05-10.82,7.07-14.45,10.75-21.63
			c2.31-4.52,6.17-4.46,10.36-0.98c3.91,3.24,8.56,5.61,12.89,8.35c3.41,2.16,6.21,5.24,10.96,1.29c2.66-2.22,15.9,5.84,14.96,9.13
			c-2.57,8.98,4.6,10.93,9.21,14.41c7.39,5.59,12.43,11.71,10.65,21.81c-0.81,4.61-2.6,6.74-7.3,6.99
			c-9.85,0.52-19.36-0.51-27.34-6.76c-4.66-3.65-7.06-2.7-10.83,1.58c-17.46,19.79-30.04,42.9-44.76,64.55
			c-1.64,2.59-0.71,4.82,0.82,7.1c14.21,21.28,29.14,42.14,42.24,64.09c6.83,11.44,17.75,19.12,24.15,30.84
			c4.24,7.76,0.42,11.12-4.3,15.29c-5.58,4.93-7.69,0.1-10.28-3.56c-18.62-26.3-37.35-52.53-55.73-78.99
			c-2.27-3.27-4.66-6.12-7.87-8.18c-4.06-2.6-7.25-2.24-10.37,2.4c-19.43,28.95-38.63,58.07-59.48,86.04
			c-3.05,4.09-4.41,11.06-11.94,7.8c-3.49-1.51-5.7-15.56-3.09-19.48c8.53-12.78,17.19-25.48,26-38.07
			c6.98-9.97,14.17-19.79,21.44-29.55c4.18-5.61,7.28-9.95,16.92-10.37c6.84-0.3,17.48-10.52,16.2-23.06
			c4.65-8.28,9.61-16.34,16.72-22.83c4.66-9.47,13.09-16.34,17.61-25.98c1.89-4.03,2.75-7.59,1.04-11.67
			C320.25,296.5,320.35,295.15,320.9,293.88z"/>
		<path class="st72" d="M271.39,355.84c-7.62-16.02-20.23-28.67-29.4-43.66c-4.6-7.51-9.87-14.61-14.74-21.97
			c-2.72-4.11-5.42-5.65-10.21-2.37c-6.32,4.32-13.46,7.44-19.71,11.84c-4.33,3.05-7.37,1.69-9.8-1.54
			c-3.39-4.51-6.54-9.34-8.9-14.45c-1.2-2.61-1.18-5.95,2.2-8.47c20.5-15.26,41.84-29.27,63.4-42.97c4.94-3.14,7.78-2.98,10.68,2.24
			c3.24,5.84,10.84,10.37,10.27,16.85c-0.55,6.24-9.47,7.21-14.12,11.26c-2.42,2.11-4.72,4.34-7.21,6.36
			c-4.54,3.69-3.96,7.04-0.41,11.34c6.46,7.82,12.53,15.98,16.54,25.44c-0.37,0.26-0.74,0.51-1.11,0.78
			c-3.61,0.19-5.25-3.13-8.57-4.16c4.22,10.34,11.19,18.83,18.57,27.03c4.56,5.63,6.36,13.77,14.66,15.98
			c1.28,0.74,2.04,1.84,2.3,3.3c-1.45,7.18-5.18,12.84-11.27,16.92c-1.31,0.86-2.62,1.71-5.01,3.28
			C271.07,364.01,275.7,360.22,271.39,355.84z"/>
		<path class="st73" d="M325.03,471.69c6.02,3.63,6.61,8.75,4.12,14.77c-2.81,6.77-8.94,8.26-14.96,7.86
			c-5.73-0.37-7.62-5.58-9.59-10.59c-0.77-1.96,3.63-9.52-4.62-6.21c-2.84-2.53-2.52-5.71-1.42-8.76c1.1-3.06,0.53-4.87-3.97-5.84
			c4.59,6.49,2.12,12.13-0.69,18.06c1.78-2.16,2.87-4.82,6.14-3.55c0,2.82,0.12,5.64-0.04,8.45c-0.52,9.2-4.15,11.31-11.64,5.66
			c-3.77-2.85-6.43-0.3-9.57-0.56c-0.2-0.44-0.41-0.88-0.61-1.31c3.08-8.27,0.92-16.89-1.77-24.07c-3.02-8.05-1.08-8.88,5.75-8.37
			c0.97,0.07,1.87-0.27,2.66-0.85c7.59,1.39,16.8-4.02,22.52,5.45c0.71,1.17,2.24,0.69,3.34-0.16c3.97-3.09,8.16-7.51,13.37-4.05
			c5.55,3.68,0.57,9.37,1.04,14.13c-8.12,3.41-9.55,2.73-11.19-6.32c-1.53,5.83-3.56,10.56-3.14,15.69
			c0.34,4.16,2.24,7.26,7.28,6.85c4.6-0.38,5.74-3.63,5.83-7.27C323.96,477.63,322.29,474.42,325.03,471.69z"/>
		<path class="st73" d="M278.8,491c-2.58,3.71-6.14,2.3-9.6,1.96c-5.22-0.52-10.13-3.82-15.78,0.75c-3.63,2.94-6.39-1.2-7.05-4.99
			c-1.13-6.55-0.46-13.2-3.11-19.76c-1.99-4.92,6.76-13.98,11.66-12.13c5.78,2.18,10.65-0.2,15.92-0.43
			c1.35,1.89,0.78,3.99-0.54,5.19c-6.85,6.2-1.85,14.36-3.69,21.39c-0.68,2.61,1.71,4.6,4.6,4.99c2.81,0.38,5.74,0.38,7.62,3.06
			L278.8,491z"/>
		<path class="st74" d="M278.82,491.02c-15.02,0.12-14.78-0.75-14.97-15.43c-0.11-8.02,2.06-13.74,7-19.2c4.66,0,9.32,0,13.98,0.01
			c-2.2,2.35-5.51,0.88-8,2.28C280.56,469.29,285.44,479.8,278.82,491.02z"/>
		<path class="st75" d="M274.57,365.59c3.4-5.65,6.8-11.3,10.2-16.95c3.88-7.79,7.93-15.45,15.7-20.23
			c3.75,1.75,5.22,4.49,3.67,8.52c-8.14,5.59-9.02,17.73-19.28,21.41C282.38,362.11,280.99,367.41,274.57,365.59z"/>
		<path class="st76" d="M299.94,328.91c-5.06,6.58-10.12,13.15-15.18,19.73c-0.57-0.71-1.14-1.42-1.71-2.13
			c-6.41-5.61-8.98-13.95-14.39-20.27c-2.95-3.24-5.58-6.72-8.11-10.27c-2.19-3.08-4.37-6.34-1.01-10.06c0,0,0.43-0.17,0.43-0.17
			c8.73,1.49,9.49,10.42,13.71,15.78c4.43,5.62,7.69,16.16,12.65,16.95c6.06,0.96,7.89-10.53,13.25-15.24
			c1.43-1.25,2.7-2.68,4.05-4.03c0.38,0.32,0.75,0.64,1.13,0.95C306.45,324.88,304.89,327.82,299.94,328.91z"/>
		<path class="st77" d="M320.9,293.88c0.11,1.49,0.23,2.97,0.34,4.46c0.74,1.04,1.85,2.53,1.19,3.42
			c-5.18,6.94-7.96,16.49-18.61,17.68c0,0-0.17-0.24-0.17-0.24C307.75,309.63,314.71,302.02,320.9,293.88z"/>
		<path class="st5" d="M149.55,589.34c-0.32-5.9,3.14-8.58,8.3-10.03c8.28-2.32,16.52-4.8,24.78-7.21
			c16.07-3.29,29.76,2.51,43.78,9.72c11.46,5.9,24.17,10.71,37.21,2.53c1.73-1.09,3.85-2.57,6.76-0.48
			c-3.16,7.81-10.75,12.09-15.4,18.66c-4.82,2.84-9.68,3.38-15.44,2.6c-24.8-3.4-48.32-11.52-72.21-18.34
			c-0.61-0.17-1.18-0.49-1.79-0.68c-3.32-1.06-8.21-3.17-9.59,0.25c-2.25,5.57,5.76,1.32,6.75,5.66
			C157.35,596.11,152.87,596.42,149.55,589.34z"/>
		<path class="st78" d="M395.39,598.81c8-4.17,14.19-5.52,21.42-2.59c8.01,3.24,16.5,5.31,23.94,9.93c3.08,1.91,4.6,4.73,2.77,8.15
			c-1.42,2.64-3.85,4.59-7.16,3.52C422.38,613.32,409.41,606.74,395.39,598.81z"/>
		<path class="st79" d="M411.39,644.9c-4.7-4.2-1.43-11.04-5.4-14.25c-5.37-4.35-7.62,4.33-13.27,4.08
			c0.67-8.77,5.72-15.88,8.79-23.58c0.97-2.42,3.64-1.61,5.83-0.34c2.73,1.59,5.58,3.09,8.55,4.15c4.56,1.62,6.02,4.24,3.99,8.78
			C416.83,630.6,415.63,638.24,411.39,644.9z"/>
		<path class="st80" d="M356.25,575.42c-4.11,3.7-7.16,5.16-12.51,2.54C347.86,574.51,351.01,573.53,356.25,575.42z"/>
		<path class="st81" d="M228.86,574.89c3.77-1.2,6.87-1.08,9.35,1.96c0.19,0.23-0.76,2.06-1.34,2.15
			C233.59,579.52,230.61,579.02,228.86,574.89z"/>
		<path class="st82" d="M337.77,581.24c-4.99,3.11-8.33,2.33-11.64,0.04C329.55,579.5,332.93,578.7,337.77,581.24z"/>
		<path class="st83" d="M332.74,604.89c2.47,3.07,7.08,0.28,9.5,3.48c-7.05,3.32-12.88,1.43-18.16-3.9
			c-3.37-3.4-7.14-6.39-10.65-9.65c-1.77-1.64-4.78-3.3-2.01-6.14c2.56-2.62,4.49-0.5,6.25,1.61
			C322.18,595.68,326.39,601.4,332.74,604.89z"/>
		<path class="st84" d="M485.75,446.65c-7.02,9.78-12.77,18.27-19.04,26.36c-4.04,5.21-9.11,4.33-11.55-1.6
			c-0.2-0.47,0.14-0.74-0.71-1.11c-5.83-2.55-5.72-2.58-3.94-9.09c5-18.23,16.9-30.21,34.2-38.42c-2.28,6.63-12.61,21.22-16.23,23.5
			c-1.06,0.67-2.43,1.82-2.83-0.05c-1.36-6.26-3.13-1.65-4.33-0.15c-2.42,3.03-4.97,6.47-2.74,10.44c1.46,2.61,4.22,0.77,5.99-0.18
			c5.33-2.86,10.43-6.15,15.72-9.11C481.27,446.7,482.7,446.95,485.75,446.65z"/>
		<path class="st85" d="M447.21,443.84c-0.61,11.87-2.58,21.66-5.28,31.32c-0.98,3.51-5.67,4.26-7.07,3.5
			c-4.27-2.34-6.03,0.05-9.06,2.12c-3.19,2.18-6.13,1.34-5.35-3.93c1.33-9.04,6-16.2,12.39-22.23
			C436.68,451,441.31,448.21,447.21,443.84z"/>
		<path class="st78" d="M461.91,307.89c-2.48-4.58-4.96-9.17-7.43-13.75c-2.99-10.51-4.76-21.15-3.77-32.12
			c1.3-2.47,2.35-5.12,3.95-7.38c2.18-3.08,2.57,0.37,3.64,1.26c-1.51,9.62,4.85,18.49,2.65,28.15c-3.11,1.18-2.18-3.58-4.81-3.22
			c-1.4,2.87-0.16,5.68,0.46,8.4c0.73,3.19,3.4,4.97,6.37,4.94c4.11-0.04,2.41-3.73,2.74-5.92c1.04-7,3.18-13.6,6.24-20.37
			c8.84,19,11.2,56.27,4.17,70.32c-1.69-6.7-3.2-12.68-4.71-18.67c-1.26-5.44-2.04-10.9-1.09-15.27c-0.21,1.86-0.11,5.07-2.68,7.4
			C464.6,312.12,463.65,309.4,461.91,307.89z"/>
		<path class="st86" d="M413.56,224.61c-3.26,1.28-0.36,6.4-4.39,5.66c-2.86-0.53-3.32-3.61-2.73-6.31
			c1.15-5.28,2.47-10.52,3.69-15.78c0.41-1.77,0.06-4.34,2.8-4.04c1.32,0.14,2.82,1.48,3.65,2.68c2.2,3.19,4.32,6.96,3.69,10.68
			c-1.23,7.28-0.17,14.58-0.9,22.6C412.71,236.33,417.08,229.19,413.56,224.61z"/>
		<path class="st84" d="M397.77,179.65c9.07,11.71,6.66,22.8,5.15,33.51c-0.36,2.58,1.24,7.7-3.13,7.76
			c-3.92,0.05-3.44-4.61-3.98-7.63C393.9,202.82,394.53,192.47,397.77,179.65z"/>
		<path class="st87" d="M132.77,472.03c-4.92,0.25-5.41-5.25-10.1-3.99c-0.69,2.94,4.02,3.37,3.33,7.11
			c-3.64,1.06-7.99,1.49-10.69-1.89c-6.07-7.61-11.42-15.81-18.09-25.22c10.38,1.77,16.09,9.4,24.62,11.39
			c1.18-2.73,2.37-5.51,3.93-9.12C130.89,457.29,131.71,464.42,132.77,472.03z"/>
		<path class="st88" d="M114.99,447.99c-7.28-4.24-10.74-12.54-16.52-18.67c-1.15-1.22-1.65-2.75-0.29-4.26
			c1.39-1.54,2.98-1.08,4.27-0.06c5.2,4.14,10.36,8.32,15.4,12.65c1.04,0.89,2.38,3.64,0.08,3.54
			C108.42,440.78,118.68,446.48,114.99,447.99z"/>
		<path class="st89" d="M109.08,421.62c3.28-0.32,5.29,2.32,7.95,3.43c3.75,3.56,8.73,6.22,9.41,15.27
			C120.8,431.67,114.18,427.46,109.08,421.62z"/>
		<path class="st90" d="M467.64,311.66c0.6-4.99,3.8-10.75-6.57-13.1c7.18-2.43,10.33-1.83,10.45,4c0.11,5.66-0.06,11.32-0.11,16.97
			C468.96,317.48,470.82,313.36,467.64,311.66z"/>
		<path class="st84" d="M174.74,606.85c-6.79,0.91-12.08,5.1-17.81,8.27c-5.54,3.06-10.98,4.97-16.91,1.17
			c-0.83-3.46-1.96-7.41,1.75-9.56c10.43-6.05,21.25-11.42,33.56-12.27c3.46-0.24,7.73,0.62,8.73,4.51
			c1.24,4.82-4.47,3.25-6.38,5.41C176.83,605.33,175.73,606.04,174.74,606.85z"/>
		<path class="st91" d="M450.37,396.82c1.44-0.62,3.27-1.6,3.83,0.69c1.93,7.86,1.98,15.57-3.94,25.13
			c1.31-10.38,0.76-18.19,0.25-26C450.51,396.65,450.37,396.82,450.37,396.82z"/>
		<path class="st92" d="M464.61,512.71c-0.74,2.99,1.47,8.25-2.91,8.86c-5.06,0.7-4.77-4.86-5.73-8.39
			c-0.34-1.23-0.49-2.52-0.61-3.8c-0.33-3.43-1.68-7.87,3.22-8.63c5.8-0.91,5.14,4.32,5.81,7.9
			C464.63,509.9,464.54,511.21,464.61,512.71z"/>
		<path class="st93" d="M374.06,293.59c-4.85-0.65-9.1-3.88-13.15-6.61c-14.03-9.46-27.44-19.82-41.38-29.42
			c-7.59-5.23-1.86-9.26,0.62-13.47c2.61-4.44,5.66-7.63,11.52-3.49c15.64,11.04,31.74,21.43,47.22,32.67
			c4.4,3.2,8.51,8.16,6.88,14.53C384.33,293.43,378.5,291.92,374.06,293.59z"/>
		<path class="st94" d="M303.81,319.43c6.75-6.26,13.04-12.88,17.42-21.1c3.04,2.48,5.89,3.18,2.61,9.33
			c-5.63,10.56-14.25,18.8-19.7,29.26c-0.05-3.38-2.8-5.35-4.2-8.02C301.67,325.93,304.66,323.46,303.81,319.43z"/>
		<path class="st95" d="M306.95,376.26c0.54,2.84-1.07,3.88-2.99,4.44c-2.2,0.64-11.07-8.58-11.29-11.63
			c-0.16-2.21,1.13-4.52,2.89-4.28C302.23,365.7,303.87,371.98,306.95,376.26z"/>
		<path class="st96" d="M229.77,429.85c3.83-7.86,7.65-15.72,15.27-20.86C242.52,417.78,235.69,423.49,229.77,429.85z"/>
		<path class="st93" d="M257.63,246.2c0.26,5.81-2.13,8.46-4.89,10.7c-9.79,7.94-19.32,16.2-30.5,22.3
			c-7.81,4.26-15.58,8.72-22.88,13.79c-8.42,5.85-9.65-2.51-12.65-6.18c-3.39-4.15-3.49-8.3,2.18-11.94
			c17.86-11.49,35.42-23.46,53.04-35.33c2.48-1.67,5.25-3.84,7.8-1.78C253.07,240.45,256.92,243.17,257.63,246.2z"/>
		<path class="st97" d="M259.55,305.9c0.07,8.67,9.15,12.01,11.45,19.36c0,3.06-1.13,5.32-4.3,6.17
			c-7.83-7.22-12.63-16.76-19.2-24.93c-3.08-3.83-2.71-7.72,0.79-9.94c4-2.52,4.56,2.82,6.66,4.64
			C256.6,302.65,258.02,304.34,259.55,305.9z"/>
		<path class="st98" d="M266.69,331.44c0.56-2.67,1.63-4.98,4.3-6.17c4.71,6.68,11.12,12.4,12.06,21.24
			c-8.96,3.62-9.9-4.91-12.58-9.29C269.32,335.34,267.43,333.67,266.69,331.44z"/>
		<path class="st74" d="M325.03,471.69c0.1,0.63,0.07,1.32,0.32,1.88c2.52,5.81,2.61,11.45-2.45,15.84
			c-3.18,2.76-7.57,2.71-10.75,0.23c-5.19-4.04-5.33-10.15-3.94-15.91c1.7-7.07,4.19-13.96,13.98-13.19
			c0.15,5.14-7.49,5.32-5.2,9.82c1.21,2.37,5.28,1.29,8.11,1.38C325.1,471.76,325.03,471.69,325.03,471.69z"/>
		<path class="st99" d="M300.04,477.45c-4.03,1.91-3.5,5.66-3.74,9.14c-0.14,1.97-0.57,4.12-3.15,3.82
			c-2.53-0.29-2.75-2.62-2.39-4.45c0.81-4.06,2.06-8.03,3.06-12.05c0.99-4,3.01-8.5-4.36-8.26c-2,0.07-3.8-1.22-3.5-3.59
			c0.27-2.06,2.24-1.99,3.79-2.04c2.88-0.09,5.77-0.09,8.65,0c5.71,0.18,6.73,3.29,3.97,7.56c-2.06,3.19-2.9,6.33-2.4,9.96
			C299.98,477.54,300.04,477.45,300.04,477.45z"/>
		<path class="st100" d="M291.02,468.13c-0.94,4.17,0.35,8.11-3.67,9.97c-0.39,0.18-2.2-1.42-2.44-2.41
			C283.92,471.61,285.32,468.86,291.02,468.13z"/>
		<path class="st101" d="M255.86,475.56c-0.27,2.93-0.25,6.69,0.75,10.5c0.64,2.43-0.64,4.44-3.5,4.56
			c-2.55,0.1-3.16-1.79-3.21-3.82c-0.16-6.72-0.52-13.28-3.03-19.77c-1.37-3.53,1.96-6,5.37-6.39c3.86-0.45,3.46,2.94,3.59,5.38
			C255.97,468.88,255.86,471.77,255.86,475.56z"/>
		<path class="st102" d="M276.72,482.46c-0.04,2.18-0.5,4.14-2.97,4.17c-2.92,0.04-4.82-2.03-5.56-4.46c-0.7-2.3,1.51-3.26,3.39-3.7
			C274.91,477.69,276.09,479.85,276.72,482.46z"/>
		<path class="st103" d="M272.48,471.26c-1.92,0.04-2.82-1.01-2.82-2.81c0-1.7,0.85-3.2,2.47-3.5c1.89-0.35,2.66,1.14,2.74,2.84
			C274.96,469.51,274.17,470.73,272.48,471.26z"/>
		<path class="st104" d="M320.92,481.59c0.05,2.29-0.96,4.12-2.95,4.51c-2.84,0.56-3.89-1.64-4.18-4.03
			c-0.26-2.07,0.43-4.08,2.7-4.35C319.13,477.41,320.44,479.26,320.92,481.59z"/>
	</g>
</g>
</svg>
